Coordinates
version=1
nRows=16
nColumns=40
inDegrees=yes

Units are S.I. units (second, meters, Newtons, ...)
Angles are in degrees.

endheader
time	pelvis_tilt	pelvis_list	pelvis_rotation	pelvis_tx	pelvis_ty	pelvis_tz	hip_flexion_r	hip_adduction_r	hip_rotation_r	knee_angle_r	knee_angle_r_beta	ankle_angle_r	subtalar_angle_r	mtp_angle_r	hip_flexion_l	hip_adduction_l	hip_rotation_l	knee_angle_l	knee_angle_l_beta	ankle_angle_l	subtalar_angle_l	mtp_angle_l	lumbar_extension	lumbar_bending	lumbar_rotation	arm_flex_r	arm_add_r	arm_rot_r	elbow_flex_r	pro_sup_r	wrist_flex_r	wrist_dev_r	arm_flex_l	arm_add_l	arm_rot_l	elbow_flex_l	pro_sup_l	wrist_flex_l	wrist_dev_l
      0.00000000	     -2.70388094	      2.19661878	    -13.15649599	     -0.73888076	      0.93172965	      1.05356149	    -15.79154962	    -11.00487482	    -22.61777329	    -12.75520570	     -0.22262034	      3.24958608	     14.18959356	    -16.90184978	     29.28300864	      3.00472541	     21.75586202	     -9.56309872	     -0.16690756	     -1.01490421	     -4.13239272	     -0.46543900	     -2.97236577	     -4.65302896	      7.79363300	     19.48972871	    -24.29283822	     -1.01344735	     43.08736477	     89.95437384	      0.00000000	      0.00000000	    -18.24061083	     16.13050184	     -1.55283497	      1.98718462	     89.95437384	      0.00000000	      0.00000000
      0.01000000	     -2.36424534	      2.25820595	    -13.70106545	     -0.72143288	      0.93136233	      1.05430087	    -16.44413542	    -11.81302970	    -22.00879189	    -13.86048695	     -0.24191113	      1.72853890	     13.84923917	    -16.25922632	     28.62804527	      3.02136455	     21.37614962	    -10.79899725	     -0.18847806	     -0.46750372	     -3.15291634	     -0.52162607	     -2.87660586	     -4.70054399	      8.29256817	     19.31679766	    -24.36187954	     -1.33880721	     43.73304157	     89.95437384	      0.00000000	      0.00000000	    -19.37020112	     15.88508937	     -1.60499151	      1.66106527	     89.95437384	      0.00000000	      0.00000000
      0.02000000	     -1.95997435	      2.37846505	    -14.20237933	     -0.70370856	      0.93116851	      1.05472801	    -17.06780998	    -12.77258118	    -21.79520958	    -15.03916935	     -0.26248302	     -0.09416121	     13.43163174	    -15.48739666	     27.87890136	      2.86922656	     20.89395428	    -12.33247162	     -0.21524223	      0.04668749	     -1.53088396	     -0.58701634	     -2.84228773	     -4.82433568	      8.77969006	     18.91371791	    -24.42418266	     -1.83908559	     44.57377235	     89.95437384	      0.00000000	      0.00000000	    -20.43870491	     15.61974262	     -1.54600185	      1.59294905	     89.95437384	      0.00000000	      0.00000000
      0.03000000	     -1.53814995	      3.03544456	    -14.33692505	     -0.68522789	      0.93085370	      1.05365245	    -17.62641285	    -14.41386128	    -22.47590998	    -16.45386138	     -0.28717406	     -1.91148074	     14.03777867	    -14.48904158	     27.10685000	      1.61211177	     20.04031461	    -13.23634046	     -0.23101772	     -0.99098235	      2.88488732	      0.05034388	     -2.64714446	     -5.46643320	      8.84264887	     18.38073309	    -24.44019304	     -2.29117561	     45.34441675	     89.95437384	      0.00000000	      0.00000000	    -21.49962970	     15.32017132	     -0.78631413	      1.61139898	     89.95437384	      0.00000000	      0.00000000
      0.04000000	     -1.33397502	      3.27601765	    -14.44351394	     -0.66741413	      0.93074966	      1.05315286	    -17.88591721	    -15.33317420	    -22.21906458	    -17.80909401	     -0.31082733	     -4.37634089	     13.38391820	    -13.58862314	     26.86221354	      1.39546393	     21.05449546	    -14.37653441	     -0.25091786	     -3.52215350	      4.61682457	      0.68895471	     -2.39208983	     -5.68480508	      8.93131572	     17.84143661	    -24.38942375	     -2.80280070	     45.94133483	     89.95437384	      0.00000000	      0.00000000	    -22.35618495	     15.02225964	     -0.30011716	      1.63762740	     89.95437384	      0.00000000	      0.00000000
      0.05000000	     -1.30267712	      3.70723456	    -14.36576804	     -0.65020969	      0.93069428	      1.05202592	    -17.59015875	    -16.46909534	    -22.18762370	    -19.66226829	     -0.34317132	     -7.17613412	     12.50679336	    -12.57637020	     26.70990686	      0.78921807	     20.24160195	    -14.91979102	     -0.26039948	     -5.75029906	      5.13955758	      1.06031782	     -1.95310669	     -6.05821754	      8.88867665	     17.29722516	    -24.16579796	     -3.54007815	     46.30887515	     89.95437384	      0.00000000	      0.00000000	    -22.98560508	     14.75874239	      0.28337073	      1.70977355	     89.95437384	      0.00000000	      0.00000000
      0.06000000	     -1.45413202	      4.18918164	    -14.02500964	     -0.63318178	      0.93026818	      1.04981630	    -16.81407335	    -17.61202403	    -22.14785518	    -22.03217284	     -0.38453396	    -10.04268224	     11.34620893	    -11.48674661	     27.02089055	      0.11508069	     18.72723072	    -16.24657139	     -0.28355616	     -8.43020112	      4.84872548	      1.48263648	     -1.37063534	     -6.36200381	      8.60334149	     16.69050484	    -24.05679515	     -4.15816218	     46.72441918	     89.95437384	      0.00000000	      0.00000000	    -23.48449796	     14.42196750	      0.79473165	      1.83365349	     89.95437384	      0.00000000	      0.00000000
      0.07000000	     -2.15166666	      5.27933318	    -13.55493972	     -0.61664015	      0.92886901	      1.04663275	    -14.85741037	    -19.43744770	    -22.30571446	    -25.15441986	     -0.43902745	    -13.19926607	     10.17985750	     -9.66257294	     28.34938967	     -1.30233352	     17.28209014	    -18.36508035	     -0.32053112	     -8.36399562	      6.28518345	      1.16465491	     -0.08359435	     -7.15719741	      8.15788904	     16.03948485	    -23.73363184	     -4.92394082	     46.96657866	     89.95437384	      0.00000000	      0.00000000	    -23.89107850	     14.03706822	      2.59077028	      1.95892708	     89.95437384	      0.00000000	      0.00000000
      0.08000000	     -2.85088019	      5.67547994	    -12.98566652	     -0.60074464	      0.92790831	      1.04428948	    -12.86334733	    -20.14620788	    -21.59777116	    -28.04505651	     -0.48947858	    -17.10557963	      7.31387252	     -7.96134641	     29.62818473	     -1.90652756	     16.62864151	    -20.86661605	     -0.36419115	     -7.60339176	      7.79767005	      1.05758428	      0.92902769	     -7.28784559	      7.67238123	     15.32112033	    -23.53168046	     -5.49730854	     47.30771586	     89.95437384	      0.00000000	      0.00000000	    -24.09738310	     13.70417479	      3.29527362	      2.14943667	     89.95437384	      0.00000000	      0.00000000
      0.09000000	     -3.61676414	      5.99656919	    -12.35053296	     -0.58560545	      0.92719403	      1.04209661	    -10.55847458	    -20.54023883	    -20.24890530	    -31.19745196	     -0.54449826	    -20.15827282	      3.75642419	     -6.45130746	     30.53267697	     -2.77983265	     15.23957548	    -22.47055690	     -0.39218520	     -7.02752171	      8.70579002	      0.95381760	      1.91140971	     -7.37819150	      7.17018768	     14.65042774	    -23.17910032	     -6.30168948	     47.44110383	     89.95437384	      0.00000000	      0.00000000	    -24.06829543	     13.43906778	      4.34600795	      2.44949781	     89.95437384	      0.00000000	      0.00000000
      0.10000000	     -4.26907480	      6.33262327	    -11.73752355	     -0.57064466	      0.92672396	      1.04008575	     -8.18887882	    -20.89183686	    -18.75786532	    -34.65526419	     -0.60484846	    -21.97620105	      0.66785360	     -5.41875529	     31.07029140	     -3.77250171	     13.83214243	    -23.61008908	     -0.41207379	     -6.10921000	      9.61056798	      0.63531668	      2.76312886	     -7.51353509	      6.67795421	     13.94920286	    -22.86632205	     -6.87343538	     47.54825996	     89.95437384	      0.00000000	      0.00000000	    -23.89670458	     13.20243859	      4.94956898	      2.74032999	     89.95437384	      0.00000000	      0.00000000
      0.11000000	     -4.76764933	      6.64481284	    -11.17118961	     -0.55586666	      0.92664751	      1.03833685	     -5.86950588	    -21.20230563	    -17.32492305	    -38.24374446	     -0.66747926	    -22.75111341	     -2.33801665	     -4.72196650	     31.31648913	     -4.75512504	     12.57182201	    -24.68786501	     -0.43088453	     -4.91498749	     11.20765145	      0.46940387	      3.39402565	     -7.67907956	      6.18386159	     13.23734135	    -22.59059568	     -7.22260247	     47.66717685	     89.95437384	      0.00000000	      0.00000000	    -23.59496568	     12.99247570	      5.79836362	      3.17528250	     89.95437384	      0.00000000	      0.00000000
      0.12000000	     -4.57049304	      6.97591760	    -10.57645376	     -0.54064739	      0.92784594	      1.03655004	     -4.45940032	    -21.79280204	    -16.79270294	    -41.58339673	     -0.72576719	    -22.27886618	     -4.87532588	     -4.44315324	     30.52414655	     -5.90805092	     11.44484819	    -25.39495573	     -0.44322559	     -3.40089742	     11.10274254	      0.17011611	      3.25489095	     -8.01804531	      5.53872843	     12.67203583	    -22.23984077	     -7.52721562	     47.56790675	     89.95437384	      0.00000000	      0.00000000	    -23.13036442	     12.79276808	      5.91756629	      3.62836451	     89.95437384	      0.00000000	      0.00000000
      0.13000000	     -5.00423197	      7.66271927	    -10.10820271	     -0.52668756	      0.92841907	      1.03472529	     -1.82033856	    -22.49161816	    -15.82338355	    -45.21911786	     -0.78922249	    -21.58554920	     -9.12894441	     -3.56677232	     30.27649558	     -7.37940063	     10.15844262	    -25.44477746	     -0.44409514	     -2.67256218	     12.87636322	      0.41546316	      3.79211124	     -8.60777144	      5.10624706	     12.01612820	    -21.77194648	     -7.95285644	     47.45902894	     89.95437384	      0.00000000	      0.00000000	    -22.53456391	     12.60062171	      6.87579873	      4.19418270	     89.95437384	      0.00000000	      0.00000000
      0.14000000	     -4.88392084	      8.08738206	     -9.62701450	     -0.51249906	      0.93035864	      1.03314355	     -0.07751109	    -23.02554080	    -15.32247417	    -48.28638019	     -0.84275632	    -19.84074046	    -11.51596722	     -2.59891037	     29.11884606	     -8.62647055	      8.98197125	    -25.20583132	     -0.43992475	     -1.67984944	     13.79215823	      0.74945984	      3.62896521	     -9.02637153	      4.55605909	     11.45309841	    -21.25580247	     -8.42739041	     47.18805659	     89.95437384	      0.00000000	      0.00000000	    -21.77480268	     12.41548974	      7.23574507	      4.82638454	     89.95437384	      0.00000000	      0.00000000
      0.15000000	     -4.57155124	      8.27068474	     -9.29229285	     -0.49844644	      0.93294858	      1.03205470	      1.43482076	    -23.26566355	    -14.79701228	    -50.96195969	     -0.88945399	    -17.69831452	    -13.14261831	     -2.12000664	     27.57817628	     -9.43522409	      8.24941058	    -24.79950872	     -0.43283308	     -0.64761374	     13.79637296	      0.83696000	      3.22781668	     -9.20834499	      4.18365785	     10.91023477	    -20.80551232	     -8.86471988	     46.67976190	     89.95437384	      0.00000000	      0.00000000	    -20.79750624	     12.25635017	      7.24818809	      5.42492666	     89.95437384	      0.00000000	      0.00000000
